<svg width="118" height="43" viewBox="0 0 118 43" fill="none" xmlns="http://www.w3.org/2000/svg">
<g clip-path="url(#clip0_108_383)">
<path d="M8.90678 1.89578L3.50212 26.3631C3.45512 26.5733 3.56046 26.7243 3.74683 26.7178L9.44482 26.501C9.62146 26.4944 9.82242 26.3499 9.92776 26.1529L11.9454 22.4171L22.5489 1.4015C22.6656 1.16997 22.5732 0.963063 22.3544 0.966347L17.9869 1.04188C17.8071 1.04517 17.6029 1.19296 17.5121 1.38508L10.0542 17.2494C10.012 17.3397 9.94558 17.4235 9.86617 17.4892C9.5534 17.7486 9.22442 17.6008 9.32652 17.2478L13.8852 1.47211C13.9436 1.27178 13.8382 1.12399 13.6454 1.13713L9.40593 1.4442C9.19039 1.45898 8.9554 1.67081 8.90678 1.89413V1.89578Z" fill="white"/>
<path d="M57.2667 26.1743L61.7185 8.83373C61.7541 8.69415 61.9275 8.57756 62.1236 8.5595L65.5512 8.24586C65.5901 8.24257 65.629 8.24257 65.6646 8.2475L67.2576 8.45112C67.4132 8.47083 67.5169 8.56114 67.5169 8.67609L67.5477 14.0622C67.5494 14.3972 68.2268 14.3709 68.3337 14.031L70.0937 8.47411C70.1439 8.31647 70.3643 8.19824 70.5799 8.21466L76.5517 8.65474C76.7413 8.66952 76.8661 8.78118 76.8451 8.92076L74.1873 26.1448C74.1597 26.3254 73.9296 26.4715 73.6914 26.46L70.925 26.3303C70.7176 26.3205 70.5766 26.1924 70.6009 26.0347L71.4209 20.6569C71.476 20.2923 70.763 20.2693 70.6252 20.6322L69.0176 24.8327C69.0046 24.8656 68.9852 24.8984 68.9593 24.9296L67.7681 26.2958C67.6693 26.4091 67.4975 26.4748 67.3322 26.465L64.8089 26.2925C64.6355 26.281 64.5108 26.1842 64.501 26.0528L64.0197 19.5452C63.9938 19.1954 63.2807 19.2644 63.2175 19.6223L62.0734 26.1661C62.0426 26.3385 61.8271 26.483 61.5986 26.483H57.5989C57.3737 26.483 57.2262 26.3451 57.27 26.1743H57.2667Z" fill="white"/>
<path d="M75.7868 26.166L78.9324 9.54135C78.9616 9.40013 79.1333 9.28026 79.3327 9.26219L83.3161 8.02898C83.3566 8.02569 83.3955 8.02569 83.4328 8.03062L85.0744 8.23588C85.2349 8.25559 85.3451 8.3459 85.3532 8.46249L85.6724 13.9093C85.6919 14.2476 86.3839 14.2213 86.4762 13.8781L87.9818 8.25887C88.0239 8.09959 88.2443 7.97971 88.4663 7.99613L94.5257 9.01588C94.7218 9.03066 94.8563 9.1456 94.8417 9.28518L93.1271 26.1364C93.1077 26.3187 92.8808 26.4681 92.6345 26.4566L89.792 26.3253C89.578 26.3154 89.4273 26.1857 89.4435 26.0264L89.9945 20.5845C90.0318 20.215 89.3009 20.1937 89.1778 20.5582L87.7565 24.8096C87.7452 24.8441 87.7257 24.8769 87.7014 24.9065L86.554 26.2891C86.46 26.4041 86.285 26.4714 86.1165 26.4599L83.5203 26.2858C83.342 26.2744 83.2075 26.1758 83.1913 26.0445L82.3502 19.458C82.3048 19.1033 81.5772 19.1739 81.5334 19.5368L80.7102 26.1594C80.6891 26.3351 80.4752 26.4796 80.2402 26.4796H76.1417C75.9116 26.4796 75.7528 26.34 75.7884 26.1676L75.7868 26.166Z" fill="white"/>
<path d="M98.4135 8.75646C98.1899 8.74497 97.9743 8.89933 97.937 9.09802L96.6487 15.962L95.6569 23.3564C95.6553 23.3712 95.6536 23.3876 95.6536 23.4024L95.6472 26.1315C95.6472 26.3286 95.8076 26.4747 96.0215 26.4747H100.883C101.118 26.4747 101.329 26.2974 101.355 26.0823L102.04 20.2577L102.749 12.3379C102.749 12.328 102.75 12.3165 102.753 12.3067L103.3 9.36732C103.335 9.17191 103.188 9.00606 102.967 8.99457L98.4135 8.75646Z" fill="white"/>
<path d="M85.1766 0.918711L85.6028 0.595217C85.6887 0.529533 85.7908 0.495049 85.888 0.499976L90.3187 0.672396C90.4921 0.678965 90.6185 0.803764 90.6298 0.977827L90.6687 1.61332C90.6704 1.64945 90.6687 1.68721 90.6606 1.72498L89.9686 4.91887C89.9233 5.12577 89.7369 5.29327 89.5343 5.3064L84.8719 5.61183C84.6547 5.62661 84.5008 5.45748 84.5267 5.23579L84.9837 1.25206C84.9983 1.12562 85.0712 1.0041 85.1798 0.921995L85.1766 0.918711Z" fill="white"/>
<path d="M46.3488 1.17334L37.9493 1.52639L33.175 14.2379L30.0165 24.4025L30.7976 26.4863H39.6298L41.9894 24.2022L48.6435 1.93856L46.3488 1.17498V1.17334ZM37.9784 21.698L35.9333 22.1413L34.8053 21.4713L38.9848 7.635L40.8355 5.24575L43.1643 5.85989L42.7997 10.374L37.9784 21.698Z" fill="white"/>
<path d="M59.7511 1.15845L51.1101 1.51643L46.7572 14.3527L43.9536 24.6241L44.8514 26.7309H53.9608L55.805 24.4237L61.6926 1.9368L59.7527 1.15845H59.7511ZM52.183 21.9015L49.8639 22.8999L48.3892 22.1412L52.5103 8.21127L54.4648 5.63646L56.108 6.07654L55.724 10.5759L52.1813 21.8998L52.183 21.9015Z" fill="white"/>
<path d="M29.7264 12.1178L30.8397 11.7861C30.9418 11.7549 31.0439 11.686 31.1201 11.5924L31.817 10.7516C31.8591 10.7007 31.8931 10.6432 31.9158 10.5858L34.4618 4.08632C34.4958 4.00093 34.5023 3.91554 34.4812 3.84329L33.9513 2.04683C33.9335 1.98443 33.8929 1.93517 33.8378 1.90561L32.2837 1.0977C32.248 1.07963 32.2075 1.06978 32.1621 1.06814L24.3104 0.941696C24.1111 0.938412 23.8858 1.11247 23.8112 1.32759L15.1849 26.0313C15.099 26.2793 15.2092 26.478 15.4279 26.4681L19.8732 26.2612C20.0823 26.2514 20.3092 26.0576 20.3869 25.8212L24.0025 14.8815C24.0965 14.599 24.4141 14.3971 24.6248 14.4857L25.3378 14.7879C25.3832 14.8076 25.4189 14.8371 25.4448 14.8782L25.8451 15.5268C25.8905 15.6007 25.8986 15.7042 25.8662 15.8126L22.7562 26.056C22.6849 26.2924 22.7919 26.4829 22.9993 26.4829H26.2162C26.2924 26.4829 26.375 26.4567 26.4544 26.409L26.7883 26.2054C26.9163 26.1266 27.0216 25.9952 27.0719 25.854L30.6469 15.535C30.6728 15.4595 30.6809 15.384 30.668 15.3183L30.4152 14.0227C30.4054 13.9734 30.3844 13.9291 30.3536 13.8946L29.3812 12.8338C29.1997 12.6351 29.4055 12.2114 29.7313 12.1145L29.7264 12.1178ZM23.8728 9.46748L25.286 5.47389C25.32 5.27027 25.5048 5.07158 25.709 5.01903L29.7053 4.23411C29.8415 4.19962 29.9598 4.23739 30.0181 4.33428L30.48 6.34421C30.5383 6.44273 30.5254 6.5856 30.4476 6.72189L29.0101 8.72033C28.9242 8.86812 28.7767 8.98142 28.6293 9.01098L24.1921 9.78441C23.9798 9.8271 23.8388 9.68588 23.8745 9.47077L23.8728 9.46748Z" fill="white"/>
<path d="M67.423 1.43276L67.8573 1.11255C67.9448 1.0485 68.0453 1.01402 68.1409 1.0173L72.4598 1.18973C72.6283 1.19629 72.7466 1.31945 72.7466 1.49187L72.7515 2.1208C72.7515 2.15692 72.7466 2.19305 72.7369 2.23082L71.8926 5.3935C71.8375 5.59876 71.6462 5.76297 71.4485 5.77611L66.8801 6.07662C66.6678 6.09139 66.5252 5.9239 66.5624 5.70386L67.2172 1.75953C67.2382 1.63473 67.316 1.51322 67.4262 1.43111L67.423 1.43276Z" fill="white"/>
<path d="M102.296 33.8773C102.258 34.0251 102.094 34.1368 101.896 34.1499C100.212 34.2616 97.0895 34.3371 95.6925 34.4307C91.6605 34.7115 87.5556 35.0071 83.53 35.324C83.6159 35.3355 83.7018 35.3454 83.7893 35.3585L83.1378 35.3552C83.2691 35.3437 83.4004 35.3339 83.53 35.3257C77.5808 34.5309 71.5458 34.2665 65.5399 33.8544C59.6344 33.4241 53.2185 32.9003 47.2855 32.4931C47.2709 32.4931 47.258 32.4931 47.2434 32.4931L0.239814 32.5587C0.106925 32.5653 0.00158691 32.6491 0.00158691 32.7525C0.00158691 32.856 0.115028 32.9463 0.25764 32.9463L46.9485 34.7641L46.8674 34.7526L47.1154 34.7624C47.0587 34.7624 47.0052 34.7624 46.9485 34.7624L51.3905 35.3454C55.7823 35.9037 60.6084 36.4998 64.9743 37.0647C70.9996 37.8709 77.0023 38.8299 83.1071 39.2355L83.2545 39.247C83.4214 39.2585 83.59 39.2569 83.7569 39.2388C89.2669 38.6476 96.4007 38.9317 101.629 38.2946C101.838 38.27 102.04 38.357 102.118 38.5048L102.199 38.6591C102.235 38.7265 102.24 38.8004 102.215 38.871L101.079 41.2028L101.06 41.2652L100.942 41.9959C100.922 42.1141 100.985 42.2307 101.109 42.3046L101.319 42.431C101.449 42.5082 101.624 42.5263 101.775 42.477L104.12 42.4228L110.168 40.61C110.414 40.518 110.651 40.4129 110.876 40.2947L116.35 36.6213C116.572 36.5047 116.61 36.265 116.428 36.1139L112.923 34.3749C112.866 34.3273 112.801 34.2846 112.73 34.2485L108.285 32.0989L103.248 30.447C103.225 30.4355 103.199 30.4256 103.173 30.4191L102.262 30.1465C102.118 30.1038 101.955 30.1202 101.831 30.1892L101.528 30.3583C101.395 30.4322 101.306 30.5669 101.331 30.69L101.434 31.7016L101.441 31.7262L102.418 33.5998C102.429 33.6442 102.429 33.6901 102.418 33.7328L102.298 33.8823L102.296 33.8773Z" fill="black"/>
<path d="M103.755 31.0858C103.716 31.2336 103.552 31.3453 103.355 31.3584C101.671 31.4701 98.548 31.5456 97.151 31.6392C93.119 31.92 89.0141 32.2156 84.9885 32.5325C85.0744 32.544 85.1603 32.5539 85.2478 32.567L84.5963 32.5637C84.7276 32.5522 84.8589 32.5424 84.9885 32.5342C79.0393 31.7394 73.0043 31.475 66.9983 31.0629C61.0929 30.6326 54.677 30.1088 48.744 29.7016C48.7294 29.7016 48.7165 29.7016 48.7019 29.7016L1.69831 29.7672C1.56542 29.7738 1.46008 29.8576 1.46008 29.961C1.46008 30.0645 1.57352 30.1548 1.71614 30.1548L48.4069 31.9726L48.3259 31.9611L48.5739 31.9709C48.5171 31.9709 48.4637 31.9709 48.4069 31.9709L52.849 32.5539C57.2408 33.1122 62.0669 33.7083 66.4328 34.2732C72.4581 35.0794 78.4608 36.0384 84.5655 36.444L84.713 36.4555C84.8799 36.467 85.0485 36.4654 85.2154 36.4473C90.7254 35.8561 97.8592 36.1402 103.087 35.5031C103.296 35.4785 103.499 35.5655 103.577 35.7133L103.658 35.8676C103.693 35.935 103.698 36.0089 103.674 36.0795L102.538 38.4113L102.518 38.4737L102.4 39.2044C102.381 39.3226 102.444 39.4392 102.567 39.5131L102.778 39.6395C102.907 39.7167 103.082 39.7348 103.233 39.6855L105.578 39.6313L111.626 37.8185C111.872 37.7265 112.109 37.6214 112.334 37.5032L117.809 33.8298C118.031 33.7132 118.068 33.4735 117.886 33.3224L114.381 31.5834C114.324 31.5358 114.26 31.4931 114.188 31.457L109.743 29.3074L104.706 27.6555C104.684 27.644 104.658 27.6341 104.632 27.6276L103.721 27.355C103.577 27.3123 103.413 27.3287 103.29 27.3977L102.987 27.5668C102.854 27.6407 102.765 27.7754 102.789 27.8985L102.893 28.9101L102.899 28.9347L103.876 30.8083C103.888 30.8527 103.888 30.8986 103.876 30.9413L103.757 31.0908L103.755 31.0858Z" fill="white"/>
</g>
<defs>
<clipPath id="clip0_108_383">
<rect width="118" height="42" fill="white" transform="translate(0 0.5)"/>
</clipPath>
</defs>
</svg>
