<svg width="126" height="44" viewBox="0 0 126 44" fill="none" xmlns="http://www.w3.org/2000/svg">
<g clip-path="url(#clip0_95_65)">
<path d="M9.51059 1.46225L3.73951 27.0947C3.68932 27.3149 3.8018 27.4731 4.00081 27.4662L10.0851 27.2392C10.2737 27.2323 10.4883 27.0809 10.6008 26.8745L12.7552 22.9608L24.0776 0.944444C24.2022 0.701882 24.1036 0.485125 23.87 0.488566L19.2064 0.567699C19.0143 0.57114 18.7962 0.725967 18.6993 0.927241L10.7358 17.547C10.6908 17.6416 10.6198 17.7294 10.535 17.7982C10.201 18.07 9.84976 17.9152 9.95878 17.5453L14.8266 1.01842C14.8889 0.808541 14.7764 0.653714 14.5705 0.667477L10.0436 0.989172C9.81342 1.00465 9.56251 1.22657 9.51059 1.46053V1.46225Z" fill="black"/>
<path d="M61.1493 26.8968L65.9029 8.73047C65.9409 8.58425 66.1261 8.4621 66.3355 8.44318L69.9954 8.1146C70.0369 8.11116 70.0785 8.11116 70.1165 8.11633L71.8176 8.32964C71.9837 8.35028 72.0944 8.4449 72.0944 8.56532L72.1273 14.2079C72.129 14.5588 72.8524 14.5313 72.9666 14.1752L74.8459 8.35373C74.8995 8.18858 75.1349 8.06472 75.365 8.08192L81.7418 8.54296C81.9442 8.55844 82.0775 8.67542 82.055 8.82165L79.217 26.8658C79.1876 27.0551 78.9419 27.2082 78.6875 27.1961L75.7336 27.0602C75.5121 27.0499 75.3615 26.9157 75.3875 26.7506L76.2631 21.1166C76.322 20.7347 75.5605 20.7106 75.4135 21.0908L73.6968 25.4913C73.683 25.5257 73.6622 25.5601 73.6345 25.5928L72.3627 27.0241C72.2571 27.1428 72.0737 27.2116 71.8972 27.2013L69.2028 27.0207C69.0177 27.0086 68.8844 26.9071 68.8741 26.7695L68.3601 19.952C68.3324 19.5855 67.571 19.6578 67.5035 20.0328L66.2818 26.8882C66.2489 27.0688 66.0188 27.2202 65.7748 27.2202H61.504C61.2635 27.2202 61.106 27.0757 61.1527 26.8968H61.1493Z" fill="black"/>
<path d="M80.9249 26.8882L84.2838 9.47194C84.3149 9.32399 84.4983 9.19841 84.7112 9.17949L88.9647 7.88755C89.0079 7.8841 89.0494 7.88411 89.0892 7.88927L90.8422 8.1043C91.0135 8.12495 91.1312 8.21956 91.1398 8.3417L91.4807 14.0479C91.5015 14.4023 92.2404 14.3748 92.339 14.0152L93.9467 8.12839C93.9916 7.96152 94.227 7.83594 94.4641 7.85314L100.934 8.92144C101.144 8.93693 101.287 9.05735 101.272 9.20357L99.4409 26.8572C99.4201 27.0482 99.1778 27.2047 98.9148 27.1927L95.8796 27.0551C95.6512 27.0448 95.4902 26.9089 95.5075 26.742L96.0959 21.0409C96.1357 20.6539 95.3552 20.6315 95.2237 21.0134L93.7061 25.4672C93.694 25.5034 93.6732 25.5378 93.6473 25.5687L92.4221 27.0172C92.3218 27.1377 92.1349 27.2082 91.9549 27.1961L89.1827 27.0138C88.9923 27.0017 88.8487 26.8985 88.8314 26.7609L87.9333 19.8608C87.8848 19.4892 87.1079 19.5632 87.0611 19.9434L86.1821 26.8813C86.1596 27.0654 85.9312 27.2168 85.6802 27.2168H81.3039C81.0582 27.2168 80.8886 27.0706 80.9267 26.8899L80.9249 26.8882Z" fill="black"/>
<path d="M105.086 8.64956C104.847 8.63752 104.617 8.79922 104.577 9.00738L103.201 16.1982L102.142 23.9447C102.14 23.9602 102.139 23.9774 102.139 23.9929L102.132 26.852C102.132 27.0584 102.303 27.2115 102.532 27.2115H107.723C107.974 27.2115 108.199 27.0258 108.226 26.8004L108.958 20.6985L109.715 12.4015C109.715 12.3912 109.716 12.3792 109.72 12.3688L110.303 9.28951C110.341 9.08479 110.184 8.91104 109.948 8.899L105.086 8.64956Z" fill="black"/>
<path d="M90.9512 0.438673L91.4063 0.0997748C91.498 0.030963 91.6071 -0.00516321 91.7109 -2.32734e-06L96.442 0.180629C96.6271 0.18751 96.7621 0.318252 96.7742 0.500604L96.8158 1.16636C96.8175 1.2042 96.8158 1.24377 96.8071 1.28334L96.0682 4.62931C96.0197 4.84607 95.8207 5.02154 95.6044 5.0353L90.6259 5.35528C90.394 5.37076 90.2296 5.19357 90.2573 4.96133L90.7453 0.787893C90.7609 0.65543 90.8387 0.528128 90.9547 0.442114L90.9512 0.438673Z" fill="black"/>
<path d="M49.4912 0.705322L40.5222 1.07519L35.4242 14.392L32.0516 25.0406L32.8857 27.2237H42.3167L44.8362 24.8307L51.9415 1.50698L49.4912 0.707043V0.705322ZM40.5533 22.2073L38.3695 22.6718L37.1651 21.9699L41.6279 7.47469L43.6041 4.97166L46.0908 5.61505L45.7014 10.3441L40.5533 22.2073Z" fill="black"/>
<path d="M63.8021 0.689819L54.5752 1.06484L49.9272 14.5124L46.9335 25.2728L47.8922 27.48H57.6191L59.5884 25.063L65.8751 1.50524L63.8038 0.689819H63.8021ZM55.7208 22.4206L53.2445 23.4665L51.6698 22.6718L56.0704 8.07849L58.1573 5.38107L59.912 5.8421L59.5019 10.5557L55.7191 22.4189L55.7208 22.4206Z" fill="black"/>
<path d="M31.7418 12.171L32.9307 11.8235C33.0397 11.7908 33.1487 11.7186 33.23 11.6205L33.9741 10.7397C34.0191 10.6864 34.0555 10.6262 34.0797 10.566L36.7982 3.75706C36.8346 3.6676 36.8415 3.57815 36.819 3.50246L36.2531 1.62045C36.2341 1.55508 36.1909 1.50347 36.132 1.47251L34.4725 0.626122C34.4344 0.607199 34.3912 0.596877 34.3427 0.595157L25.9586 0.462694C25.7458 0.459254 25.5053 0.641605 25.4257 0.866964L16.2144 26.7471C16.1227 27.0069 16.2404 27.215 16.474 27.2047L21.2206 26.9879C21.4439 26.9776 21.6861 26.7746 21.7692 26.5269L25.6299 15.0663C25.7302 14.7704 26.0694 14.5588 26.2943 14.6517L27.0558 14.9682C27.1042 14.9889 27.1423 15.0198 27.17 15.0628L27.5974 15.7424C27.6458 15.8198 27.6545 15.9282 27.6199 16.0417L24.2991 26.7729C24.223 27.0206 24.3372 27.2202 24.5587 27.2202H27.9937C28.075 27.2202 28.1632 27.1926 28.248 27.1428L28.6045 26.9294C28.7412 26.8469 28.8537 26.7092 28.9073 26.5613L32.7247 15.751C32.7524 15.6718 32.7611 15.5927 32.7472 15.5239L32.4773 14.1666C32.4669 14.115 32.4444 14.0685 32.4115 14.0324L31.3732 12.9211C31.1794 12.7129 31.3992 12.2691 31.747 12.1676L31.7418 12.171ZM25.4914 9.39447L27.0004 5.21071C27.0367 4.99739 27.234 4.78924 27.452 4.73419L31.7193 3.91189C31.8647 3.87576 31.991 3.91533 32.0533 4.01682L32.5465 6.12247C32.6088 6.22568 32.595 6.37535 32.5119 6.51813L30.977 8.61173C30.8853 8.76656 30.7278 8.88526 30.5703 8.91623L25.8323 9.72649C25.6056 9.77121 25.4551 9.62327 25.4931 9.39791L25.4914 9.39447Z" fill="black"/>
<path d="M71.994 0.977086L72.4578 0.641628C72.5513 0.574537 72.6585 0.53841 72.7606 0.541851L77.3723 0.722482C77.5523 0.729363 77.6786 0.858385 77.6786 1.03902L77.6838 1.69789C77.6838 1.73574 77.6786 1.77358 77.6682 1.81315L76.7667 5.12644C76.7078 5.34148 76.5036 5.51351 76.2925 5.52727L71.4143 5.84208C71.1876 5.85756 71.0354 5.68209 71.0752 5.45157L71.7743 1.31942C71.7968 1.18868 71.8798 1.06138 71.9975 0.975366L71.994 0.977086Z" fill="black"/>
<path d="M109.232 34.9666C109.19 35.1215 109.016 35.2384 108.804 35.2522C107.006 35.3692 103.672 35.4483 102.18 35.5464C97.8748 35.8406 93.4916 36.1502 89.1931 36.4822C89.2848 36.4943 89.3765 36.5046 89.47 36.5183L88.7743 36.5149C88.9145 36.5029 89.0547 36.4925 89.1931 36.4839C82.8406 35.6513 76.3963 35.3744 69.9833 34.9426C63.6775 34.4918 56.8266 33.9431 50.4913 33.5164C50.4758 33.5164 50.4619 33.5164 50.4464 33.5164L0.256087 33.5852C0.114189 33.5921 0.00170898 33.6799 0.00170898 33.7882C0.00170898 33.8966 0.122841 33.9912 0.275122 33.9912L50.1314 35.8956L50.0449 35.8836L50.3096 35.8939C50.2491 35.8939 50.192 35.8939 50.1314 35.8939L54.8746 36.5046C59.5641 37.0895 64.7175 37.714 69.3793 38.3057C75.8132 39.1504 82.2228 40.1551 88.7414 40.58L88.8989 40.592C89.0771 40.6041 89.2571 40.6023 89.4354 40.5834C95.3189 39.9641 102.936 40.2617 108.519 39.5942C108.742 39.5684 108.958 39.6596 109.041 39.8144L109.128 39.9761C109.166 40.0467 109.171 40.1241 109.145 40.1981L107.932 42.6409L107.911 42.7063L107.785 43.4718C107.764 43.5956 107.832 43.7178 107.963 43.7952L108.188 43.9277C108.327 44.0085 108.514 44.0274 108.675 43.9758L111.179 43.9191L117.637 42.0199C117.9 41.9235 118.152 41.8134 118.393 41.6896L124.238 37.8413C124.475 37.7191 124.515 37.468 124.321 37.3097L120.578 35.4879C120.518 35.438 120.449 35.3933 120.373 35.3554L115.626 33.1036L110.248 31.3729C110.223 31.3609 110.196 31.3506 110.168 31.3437L109.195 31.0581C109.041 31.0134 108.867 31.0306 108.735 31.1029L108.412 31.2801C108.27 31.3575 108.175 31.4985 108.2 31.6276L108.311 32.6873L108.318 32.7131L109.362 34.6759C109.374 34.7224 109.374 34.7705 109.362 34.8153L109.234 34.9718L109.232 34.9666Z" fill="#22BB68"/>
<path d="M110.789 32.0422C110.748 32.197 110.573 32.314 110.362 32.3278C108.564 32.4448 105.229 32.5239 103.738 32.6219C99.4322 32.9161 95.049 33.2258 90.7505 33.5578C90.8422 33.5698 90.934 33.5801 91.0274 33.5939L90.3318 33.5905C90.4719 33.5784 90.6121 33.5681 90.7505 33.5595C84.398 32.7269 77.9538 32.4499 71.5407 32.0181C65.2349 31.5674 58.384 31.0186 52.0488 30.592C52.0332 30.592 52.0194 30.592 52.0038 30.592L1.81352 30.6608C1.67162 30.6677 1.55914 30.7554 1.55914 30.8638C1.55914 30.9722 1.68028 31.0668 1.83256 31.0668L51.6888 32.9712L51.6023 32.9591L51.8671 32.9694C51.8065 32.9694 51.7494 32.9694 51.6888 32.9694L56.432 33.5801C61.1216 34.165 66.2749 34.7895 70.9368 35.3813C77.3706 36.226 83.7802 37.2306 90.2989 37.6555L90.4563 37.6676C90.6346 37.6796 90.8146 37.6779 90.9928 37.659C96.8764 37.0397 104.494 37.3373 110.076 36.6698C110.3 36.644 110.516 36.7352 110.599 36.89L110.685 37.0517C110.723 37.1222 110.729 37.1997 110.703 37.2736L109.49 39.7164L109.469 39.7818L109.343 40.5473C109.322 40.6712 109.389 40.7934 109.521 40.8708L109.746 41.0032C109.884 41.0841 110.071 41.103 110.232 41.0514L112.736 40.9946L119.194 39.0954C119.457 38.9991 119.71 38.889 119.95 38.7651L125.796 34.9168C126.033 34.7947 126.073 34.5435 125.879 34.3852L122.136 32.5635C122.075 32.5136 122.006 32.4688 121.93 32.431L117.183 30.1791L111.805 28.4485C111.781 28.4365 111.753 28.4261 111.725 28.4193L110.753 28.1337C110.599 28.089 110.424 28.1062 110.293 28.1784L109.969 28.3556C109.827 28.433 109.732 28.5741 109.758 28.7031L109.869 29.7628L109.876 29.7886L110.919 31.7515C110.931 31.7979 110.931 31.8461 110.919 31.8908L110.791 32.0474L110.789 32.0422Z" fill="black"/>
</g>
<defs>
<clipPath id="clip0_95_65">
<rect width="126" height="44" fill="white"/>
</clipPath>
</defs>
</svg>
