<svg width="19" height="19" viewBox="0 0 19 19" fill="none" xmlns="http://www.w3.org/2000/svg">
<path d="M9.82672 5.00281V9.50281H13.2017M16.5767 9.50281C16.5767 10.3892 16.4021 11.267 16.0629 12.0859C15.7237 12.9049 15.2265 13.649 14.5997 14.2758C13.9729 14.9026 13.2288 15.3998 12.4098 15.739C11.5909 16.0782 10.7131 16.2528 9.82672 16.2528C8.9403 16.2528 8.06256 16.0782 7.24361 15.739C6.42466 15.3998 5.68055 14.9026 5.05375 14.2758C4.42695 13.649 3.92975 12.9049 3.59053 12.0859C3.25132 11.267 3.07672 10.3892 3.07672 9.50281C3.07672 7.7126 3.78788 5.99571 5.05375 4.72984C6.31962 3.46397 8.03651 2.75281 9.82672 2.75281C11.6169 2.75281 13.3338 3.46397 14.5997 4.72984C15.8656 5.99571 16.5767 7.7126 16.5767 9.50281Z" stroke="black" stroke-width="1.5" stroke-linecap="round" stroke-linejoin="round"/>
</svg>
