<svg width="20" height="19" viewBox="0 0 20 19" fill="none" xmlns="http://www.w3.org/2000/svg">
<path d="M14.039 6.5994H19.031L15.85 3.4164C14.8259 2.39228 13.5502 1.6558 12.1512 1.28101C10.7522 0.906222 9.27921 0.906332 7.88027 1.28133C6.48133 1.65632 5.20576 2.39299 4.1818 3.41727C3.15784 4.44155 2.42156 5.71735 2.047 7.11641M1.001 16.8954V11.9034M1.001 11.9034H5.993M1.001 11.9034L4.181 15.0864C5.20512 16.1105 6.48079 16.847 7.87979 17.2218C9.27878 17.5966 10.7518 17.5965 12.1507 17.2215C13.5497 16.8465 14.8252 16.1098 15.8492 15.0855C16.8732 14.0613 17.6094 12.7855 17.984 11.3864M19.031 1.60741V6.5974" stroke="black" stroke-width="1.5" stroke-linecap="round" stroke-linejoin="round"/>
</svg>
