<svg width="19" height="19" viewBox="0 0 19 19" fill="none" xmlns="http://www.w3.org/2000/svg">
<path d="M12.0767 14.8488C12.7165 15.0346 13.3793 15.1285 14.0455 15.1278C15.1168 15.1294 16.1742 14.8851 17.1362 14.4138C17.1647 13.7416 16.9732 13.0784 16.5908 12.5248C16.2084 11.9712 15.656 11.5573 15.0173 11.3459C14.3785 11.1345 13.6882 11.1371 13.0511 11.3534C12.414 11.5696 11.8647 11.9876 11.4865 12.5441M12.0767 14.8488V14.8466C12.0767 14.0118 11.8622 13.2266 11.4865 12.5441M12.0767 14.8488V14.9283C10.6333 15.7976 8.97968 16.2557 7.29472 16.2528C5.54647 16.2528 3.91072 15.7691 2.51422 14.9283L2.51347 14.8466C2.5129 13.7849 2.86568 12.7533 3.51621 11.9143C4.16674 11.0753 5.078 10.4766 6.10634 10.2128C7.13468 9.94888 8.22159 10.0348 9.19572 10.4569C10.1699 10.879 10.9758 11.6133 11.4865 12.5441M9.82672 5.28406C9.82672 5.95539 9.56004 6.59922 9.08534 7.07392C8.61064 7.54862 7.9668 7.81531 7.29547 7.81531C6.62414 7.81531 5.98031 7.54862 5.50561 7.07392C5.03091 6.59922 4.76422 5.95539 4.76422 5.28406C4.76422 4.61273 5.03091 3.9689 5.50561 3.49419C5.98031 3.01949 6.62414 2.75281 7.29547 2.75281C7.9668 2.75281 8.61064 3.01949 9.08534 3.49419C9.56004 3.9689 9.82672 4.61273 9.82672 5.28406ZM16.0142 6.97156C16.0142 7.4937 15.8068 7.99446 15.4376 8.36367C15.0684 8.73289 14.5676 8.94031 14.0455 8.94031C13.5233 8.94031 13.0226 8.73289 12.6534 8.36367C12.2841 7.99446 12.0767 7.4937 12.0767 6.97156C12.0767 6.44941 12.2841 5.94865 12.6534 5.57944C13.0226 5.21023 13.5233 5.00281 14.0455 5.00281C14.5676 5.00281 15.0684 5.21023 15.4376 5.57944C15.8068 5.94865 16.0142 6.44941 16.0142 6.97156Z" stroke="black" stroke-width="1.5" stroke-linecap="round" stroke-linejoin="round"/>
</svg>
