<?xml version="1.0" encoding="utf-8"?>
<!-- Generator: Adobe Illustrator 27.5.0, SVG Export Plug-In . SVG Version: 6.00 Build 0)  -->
<svg version="1.1" id="Calque_1" xmlns="http://www.w3.org/2000/svg" xmlns:xlink="http://www.w3.org/1999/xlink" x="0px" y="0px"
	 viewBox="0 0 531.9 763.8" style="enable-background:new 0 0 531.9 763.8;" xml:space="preserve">
<style type="text/css">
	.st0{fill:#FFFFFF;stroke:#DDDDDD;stroke-width:5;stroke-miterlimit:10;}
	.st1{fill:#DDDDDD;}
	.st2{fill:#FFFFFF;stroke:#22BB68;stroke-width:5;stroke-miterlimit:10;}
</style>
<path class="st0" d="M391.6,240.8v34.3c0,2.6-2.1,4.6-4.6,4.6h-34.3c-2.6,0-4.6,2.1-4.6,4.6V300c0,2.6-2.1,4.6-4.6,4.6H78.8
	c-2.6,0-4.6-2.1-4.6-4.6V172.3c0-2.6,2.1-4.6,4.6-4.6h264.6c2.6,0,4.6,2.1,4.6,4.6v59.2c0,2.6,2.1,4.6,4.6,4.6h34.3
	C389.5,236.2,391.6,238.2,391.6,240.8z"/>
<path class="st0" d="M174.9,139L78,76.1c-2.1-1.4-2.7-4.3-1.4-6.4l28.9-44.5c1.4-2.1,4.3-2.7,6.4-1.4l96.8,62.9
	c2.1,1.4,2.7,4.3,1.4,6.4l-28.9,44.5C179.9,139.7,177,140.4,174.9,139z"/>
<path class="st0" d="M294.6,330v210c0,2.6-2.1,4.6-4.6,4.6H153c-2.6,0-4.6-2.1-4.6-4.6v-91.1c0-2.6-2.1-4.6-4.6-4.6h-15.3
	c-2.6,0-4.6,2.1-4.6,4.6v72.5c0,2.6-2.1,4.6-4.6,4.6H9.7c-2.6,0-4.6-2.1-4.6-4.6v-72.5c0-2.6,2.1-4.6,4.6-4.6h89.6
	c2.6,0,4.6-2.1,4.6-4.6v-36.6c0-2.6,2.1-4.6,4.6-4.6H191c2.6,0,4.6-2.1,4.6-4.6V330c0-2.6,2.1-4.6,4.6-4.6H290
	C292.5,325.3,294.6,327.4,294.6,330z"/>
<g>
	<path class="st1" d="M105.1,246.2h-6v-21.4h6V246.2z"/>
	<path class="st1" d="M117.8,246.5c-2.5,0-4.5-0.4-6.2-1.1c-1.6-0.8-2.8-1.8-3.6-3.2c-0.8-1.4-1.2-3-1.2-4.9v-12.4h6v12
		c0,1,0.1,1.8,0.4,2.4c0.3,0.6,0.7,1,1.5,1.2c0.7,0.2,1.7,0.4,3.1,0.4c1.4,0,2.4-0.1,3.1-0.4c0.7-0.2,1.2-0.6,1.4-1.2
		c0.3-0.6,0.4-1.4,0.4-2.4v-12h6v12.4c0,1.9-0.4,3.5-1.2,4.9c-0.8,1.4-2,2.5-3.6,3.2C122.4,246.1,120.3,246.5,117.8,246.5z"/>
	<path class="st1" d="M151.2,230.2h-21.2v-5.4h21.2V230.2z M143.7,246.2h-6v-21.4h6V246.2z"/>
	<path class="st1" d="M164.5,246.5c-1.6,0-3-0.3-4.2-1s-2-1.6-2.6-2.9c-0.6-1.3-0.9-2.8-0.9-4.5c0-1.7,0.3-3.2,0.9-4.5
		c0.6-1.2,1.4-2.2,2.5-2.9c1.1-0.7,2.4-1,4-1c1.9,0,3.3,0.4,4.3,1.2s1.6,1.9,1.8,3.2h0.9v3.7h-0.6c0-1.1-0.3-1.9-1-2.2
		c-0.7-0.3-1.6-0.5-3-0.5c-0.9,0-1.7,0.1-2.2,0.3s-0.9,0.5-1.2,0.9s-0.4,1-0.4,1.7c0,0.7,0.1,1.3,0.4,1.7c0.2,0.4,0.6,0.7,1.2,0.9
		c0.6,0.2,1.3,0.3,2.2,0.3c0.9,0,1.6-0.1,2.2-0.2c0.6-0.1,1-0.4,1.3-0.8s0.4-1,0.4-1.8h0.6l0.4,3.7h-1c-0.3,1.6-0.9,2.8-1.9,3.5
		S166.4,246.5,164.5,246.5z M176.6,246.2H171v-4.5l-0.4-0.4v-16.5h6V246.2z"/>
	<path class="st1" d="M187.5,246.5c-1.8,0-3.4-0.3-4.8-0.8c-1.4-0.6-2.5-1.5-3.3-2.7c-0.8-1.2-1.2-2.9-1.2-4.9
		c0-1.7,0.4-3.2,1.2-4.5c0.8-1.2,1.9-2.2,3.2-2.9c1.4-0.7,3-1,4.8-1c1.9,0,3.5,0.3,4.8,0.9s2.4,1.5,3.2,2.7c0.7,1.2,1.1,2.6,1.1,4.4
		c0,0.3,0,0.5,0,0.8c0,0.2,0,0.5-0.1,0.8h-14.3v-3h9.9l-1.3,1.9c0-0.2,0-0.4,0-0.6s0-0.4,0-0.6c0-1-0.3-1.7-0.8-2
		c-0.5-0.4-1.4-0.6-2.7-0.6c-1.4,0-2.3,0.2-2.8,0.6c-0.5,0.4-0.7,1.2-0.7,2.3v1.5c0,1.1,0.2,1.9,0.7,2.3c0.5,0.4,1.4,0.6,2.8,0.6
		c1.2,0,2-0.1,2.4-0.3c0.4-0.2,0.6-0.6,0.6-1V240h6v0.4c0,1.2-0.4,2.3-1.1,3.2c-0.7,0.9-1.7,1.6-3.1,2.2S189.4,246.5,187.5,246.5z"
		/>
	<path class="st1" d="M223.3,230.2h-21.2v-5.4h21.2V230.2z M215.7,246.2h-6v-21.4h6V246.2z"/>
	<path class="st1" d="M230.7,246.2h-6v-16.1h5.6v4.6l0.4,0.2V246.2z M230.7,236.6h-1.1v-2.3h1.1c0.1-0.9,0.4-1.7,0.9-2.4
		c0.4-0.7,1-1.2,1.7-1.6c0.7-0.4,1.6-0.6,2.7-0.6c1.2,0,2.2,0.2,2.9,0.7c0.7,0.5,1.3,1.1,1.6,2c0.3,0.8,0.5,1.8,0.5,2.9v3.2h-6v-1.9
		c0-0.7-0.1-1.2-0.4-1.4c-0.3-0.3-0.8-0.4-1.6-0.4c-0.8,0-1.4,0.1-1.7,0.4C230.9,235.5,230.7,235.9,230.7,236.6z"/>
	<path class="st1" d="M251.2,246.5c-1.9,0-3.5-0.3-4.9-1c-1.4-0.7-2.5-1.6-3.3-2.9c-0.8-1.3-1.2-2.8-1.2-4.5c0-1.7,0.4-3.2,1.2-4.5
		c0.8-1.2,1.9-2.2,3.3-2.9c1.4-0.7,3.1-1,4.9-1c1.9,0,3.5,0.3,4.9,1c1.4,0.7,2.5,1.6,3.3,2.9c0.8,1.2,1.2,2.7,1.2,4.5
		c0,1.7-0.4,3.2-1.2,4.5c-0.8,1.3-1.9,2.2-3.3,2.9C254.7,246.2,253,246.5,251.2,246.5z M251.2,241.2c1.4,0,2.3-0.2,2.8-0.7
		c0.5-0.4,0.7-1.2,0.7-2.4c0-1.2-0.2-2-0.7-2.4c-0.5-0.4-1.4-0.7-2.8-0.7c-1.4,0-2.3,0.2-2.8,0.7c-0.5,0.4-0.7,1.3-0.7,2.4
		c0,1.2,0.2,2,0.7,2.4C248.9,241,249.8,241.2,251.2,241.2z"/>
	<path class="st1" d="M265.6,251.6h-2.9v-5.4h4.7c0.5,0,0.9-0.1,1.1-0.2c0.3-0.1,0.4-0.4,0.6-0.7l0.4-1.1l-0.6,2.7l-8.2-16.9h6.8
		l2.8,6.3l1.2,3.7h0.4l1.1-3.8l2.4-6.3h6.7l-7.6,16.8c-0.6,1.3-1.3,2.2-2,2.9c-0.8,0.7-1.7,1.2-2.8,1.5
		C268.5,251.5,267.1,251.6,265.6,251.6z"/>
	<path class="st1" d="M291.7,246.5c-1.8,0-3.4-0.3-4.8-0.8c-1.4-0.6-2.5-1.5-3.3-2.7c-0.8-1.2-1.2-2.9-1.2-4.9
		c0-1.7,0.4-3.2,1.2-4.5c0.8-1.2,1.9-2.2,3.2-2.9s3-1,4.8-1c1.9,0,3.5,0.3,4.8,0.9c1.4,0.6,2.4,1.5,3.2,2.7c0.7,1.2,1.1,2.6,1.1,4.4
		c0,0.3,0,0.5,0,0.8s0,0.5-0.1,0.8h-14.3v-3h9.9l-1.3,1.9c0-0.2,0-0.4,0-0.6s0-0.4,0-0.6c0-1-0.3-1.7-0.8-2
		c-0.5-0.4-1.4-0.6-2.7-0.6c-1.4,0-2.3,0.2-2.8,0.6c-0.5,0.4-0.7,1.2-0.7,2.3v1.5c0,1.1,0.2,1.9,0.7,2.3c0.5,0.4,1.4,0.6,2.8,0.6
		c1.2,0,2-0.1,2.4-0.3c0.4-0.2,0.6-0.6,0.6-1V240h6v0.4c0,1.2-0.4,2.3-1.1,3.2c-0.7,0.9-1.7,1.6-3.1,2.2
		C295.1,246.3,293.5,246.5,291.7,246.5z"/>
	<path class="st1" d="M311,246.5c-2.8,0-5-0.5-6.5-1.6c-1.5-1-2.2-2.5-2.2-4.4v-0.1h6v0.3c0,0.4,0.2,0.7,0.6,0.8
		c0.4,0.1,1.1,0.2,2.2,0.2c1,0,1.7-0.1,2-0.2c0.3-0.1,0.4-0.3,0.4-0.6c0-0.3-0.1-0.4-0.3-0.5c-0.2-0.1-0.7-0.2-1.4-0.3l-4.7-0.5
		c-1.7-0.2-2.9-0.6-3.8-1.4c-0.9-0.8-1.3-1.9-1.3-3.2c0-1,0.3-1.8,0.8-2.6c0.5-0.8,1.4-1.4,2.7-1.9c1.2-0.5,2.8-0.7,4.8-0.7
		c1.9,0,3.5,0.2,4.7,0.7c1.3,0.4,2.2,1.1,2.9,2s1,2,1,3.3v0.1h-6v-0.2c0-0.3-0.1-0.5-0.2-0.7s-0.4-0.3-0.8-0.4
		c-0.4-0.1-1-0.1-1.8-0.1c-1,0-1.6,0.1-1.8,0.2c-0.2,0.1-0.4,0.4-0.4,0.7c0,0.2,0.1,0.4,0.4,0.5s0.8,0.2,1.8,0.4l3.2,0.4
		c2.3,0.3,4,0.8,4.9,1.6c0.9,0.8,1.3,1.9,1.3,3.2c0,1-0.3,1.9-1,2.7s-1.6,1.4-2.8,1.8C314.3,246.3,312.8,246.5,311,246.5z"/>
</g>
<g>
	<path class="st1" d="M112.7,73.5l-5-3.3l11.7-18l6.8,4.4l-1.5,9.6l-1.2,5.8l0.3,0.2l4.7-3.5l8-5.4l6.8,4.4l-11.7,18l-5-3.3l4.8-7.4
		l2.1-2.9l-0.3-0.2l-3,2.3l-6.8,4.6l-6.1-4l1.4-8.1l0.9-3.7l-0.3-0.2l-1.8,3.1L112.7,73.5z"/>
	<path class="st1" d="M138.3,90.1l-5-3.3l11.7-18l6.8,4.4l-1.5,9.6l-1.2,5.8l0.3,0.2l4.7-3.5l8-5.4l6.8,4.4l-11.7,18l-5-3.3l4.8-7.4
		l2.1-2.9l-0.3-0.2l-3,2.3l-6.8,4.6l-6.1-4l1.4-8.1l0.9-3.7l-0.3-0.2l-1.8,3.1L138.3,90.1z"/>
	<path class="st1" d="M163.8,106.7l-5-3.3l11.7-18l5,3.3L163.8,106.7z"/>
</g>
<g id="parking">
	<path id="p1z1" class="st2" d="M481.3,201L220.8,31.8c-2.5-1.6-3.2-5-1.6-7.5l11.6-17.8c1.6-2.5,5-3.2,7.5-1.6L498.8,174
		c2.5,1.6,3.2,5,1.6,7.5l-11.6,17.8C487.2,201.9,483.9,202.6,481.3,201z"/>
	<path id="p1z2" class="st2" d="M527.5,230.8v242.1c0,3-2.4,5.5-5.5,5.5h-21.2c-3,0-5.5-2.4-5.5-5.5V230.8c0-3,2.4-5.5,5.5-5.5H522
		C525.1,225.3,527.5,227.8,527.5,230.8z"/>
	<path id="p1z3" class="st2" d="M436.6,535.5L176,704.8c-2.5,1.6-5.9,0.9-7.5-1.6l-11.6-17.8c-1.6-2.5-0.9-5.9,1.6-7.5l260.6-169.2
		c2.5-1.6,5.9-0.9,7.5,1.6l11.6,17.8C439.9,530.5,439.1,533.9,436.6,535.5z"/>
	<path id="p1z4" class="st2" d="M463.2,251.7v242.1c0,3-2.4,5.5-5.5,5.5h-21.2c-3,0-5.5-2.4-5.5-5.5V251.7c0-3,2.4-5.5,5.5-5.5h21.2
		C460.7,246.2,463.2,248.6,463.2,251.7z"/>
	<path id="p1z5" class="st2" d="M471.8,589.8L211.2,759c-2.5,1.6-5.9,0.9-7.5-1.6l-11.6-17.8c-1.6-2.5-0.9-5.9,1.6-7.5l260.6-169.2
		c2.5-1.6,5.9-0.9,7.5,1.6l11.6,17.8C475.1,584.8,474.4,588.1,471.8,589.8z"/>
</g>
</svg>
