<?xml version="1.0" encoding="utf-8"?>
<!-- Generator: Adobe Illustrator 27.5.0, SVG Export Plug-In . SVG Version: 6.00 Build 0)  -->
<svg version="1.1" id="Calque_1" xmlns="http://www.w3.org/2000/svg" xmlns:xlink="http://www.w3.org/1999/xlink" x="0px" y="0px"
	 viewBox="0 0 553.3 697.3" style="enable-background:new 0 0 553.3 697.3;" xml:space="preserve">
<style type="text/css">
	.st0{fill:#DDDDDD;}
	.st1{fill:#FFFFFF;stroke:#3FAF67;stroke-width:5;stroke-miterlimit:10;}
</style>
<g>
	<g>
		<g>
			<path class="st0" d="M317.5,147.2C319.5,148.8,318,147.6,317.5,147.2c-0.3-0.3-0.7-0.6-1-1c-0.6-0.6-1.3-1.2-1.8-1.8
				c-0.6-0.6-1.2-1.3-1.7-1.9c-0.3-0.4-0.6-0.8-0.9-1.1c1.6,1.8,0.5,0.7,0.2,0.2c-2.1-2.9-3.9-6.1-5.3-9.5c0.3,0.6,0.5,1.2,0.8,1.8
				c-2.2-5.2-3.6-10.7-4.3-16.3c0.1,0.7,0.2,1.3,0.3,2c-1.1-8.6-0.6-17.2,0.5-25.7c-0.1,0.7-0.2,1.3-0.3,2c1.6-12,4.5-23.9,6.2-35.9
				c1.7-11.9,2.3-23.8,0.1-35.6c-1.2-6.4-3.4-12.7-6.6-18.5c-1.9-3.4-6.9-4.8-10.3-2.7c-3.5,2.2-4.7,6.6-2.7,10.3
				c0.9,1.6,1.7,3.3,2.4,5c-0.3-0.6-0.5-1.2-0.8-1.8c2,4.8,3.3,9.9,4,15.1c-0.1-0.7-0.2-1.3-0.3-2c1.2,9,0.7,18.1-0.5,27
				c0.1-0.7,0.2-1.3,0.3-2c-2.2,16-6.4,31.6-7.6,47.7c-1,13.6,0.9,27.6,7,39.9c3.5,7.1,8.6,13,14.8,17.8c1.4,1.1,4.1,1.2,5.8,0.8
				c1.7-0.5,3.6-1.8,4.5-3.4c0.9-1.7,1.4-3.8,0.8-5.8C320.3,149.7,319.1,148.5,317.5,147.2L317.5,147.2z"/>
		</g>
	</g>
</g>
<g>
	<path class="st1" d="M167.8,353.3L32,489.1c-2.2,2.2-5.8,2.2-8.1,0L9.2,474.5c-2.2-2.2-2.2-5.8,0-8.1L145,330.6
		c2.2-2.2,5.8-2.2,8.1,0l14.7,14.7C170,347.5,170,351.1,167.8,353.3z"/>
	<path class="st1" d="M346.6,174.5L210.8,310.3c-2.2,2.2-5.8,2.2-8.1,0l-14.7-14.7c-2.2-2.2-2.2-5.8,0-8.1l135.8-135.8
		c2.2-2.2,5.8-2.2,8.1,0l14.7,14.7C348.9,168.6,348.9,172.2,346.6,174.5z"/>
	<path class="st1" d="M396.1,223.9L260.3,359.7c-2.2,2.2-5.8,2.2-8.1,0L237.5,345c-2.2-2.2-2.2-5.8,0-8.1l135.8-135.8
		c2.2-2.2,5.8-2.2,8.1,0l14.7,14.7C398.3,218,398.3,221.7,396.1,223.9z"/>
	<path class="st1" d="M217.2,402.8L81.4,538.6c-2.2,2.2-5.8,2.2-8.1,0l-14.7-14.7c-2.2-2.2-2.2-5.8,0-8.1L194.5,380
		c2.2-2.2,5.8-2.2,8.1,0l14.7,14.7C219.4,396.9,219.4,400.5,217.2,402.8z"/>
	<path class="st1" d="M243.7,429.3L107.9,565.1c-2.2,2.2-5.8,2.2-8.1,0l-14-14c-2.2-2.2-2.2-5.8,0-8.1l135.8-135.8
		c2.2-2.2,5.8-2.2,8.1,0l14,14C245.9,423.4,245.9,427,243.7,429.3z"/>
	<path class="st1" d="M422.6,250.4L286.8,386.2c-2.2,2.2-5.8,2.2-8.1,0l-14-14c-2.2-2.2-2.2-5.8,0-8.1l135.8-135.8
		c2.2-2.2,5.8-2.2,8.1,0l14,14C424.8,244.6,424.8,248.2,422.6,250.4z"/>
	<path class="st1" d="M497.9,325.7L362.1,461.5c-2.2,2.2-5.8,2.2-8.1,0l-14.7-14.7c-2.2-2.2-2.2-5.8,0-8.1L475.2,303
		c2.2-2.2,5.8-2.2,8.1,0l14.7,14.7C500.2,319.9,500.2,323.5,497.9,325.7z"/>
	<path class="st1" d="M470.5,298.3L334.7,434.1c-2.2,2.2-5.8,2.2-8.1,0L312,419.5c-2.2-2.2-2.2-5.8,0-8.1l135.8-135.8
		c2.2-2.2,5.8-2.2,8.1,0l14.7,14.7C472.7,292.5,472.7,296.1,470.5,298.3z"/>
	<path class="st1" d="M291.6,477.2L155.8,613c-2.2,2.2-5.8,2.2-8.1,0l-14.7-14.7c-2.2-2.2-2.2-5.8,0-8.1l135.8-135.8
		c2.2-2.2,5.8-2.2,8.1,0l14.7,14.7C293.9,471.3,293.9,475,291.6,477.2z"/>
	<path class="st1" d="M319.1,504.6L183.3,640.4c-2.2,2.2-5.8,2.2-8.1,0l-14.7-14.7c-2.2-2.2-2.2-5.8,0-8.1l135.8-135.8
		c2.2-2.2,5.8-2.2,8.1,0l14.7,14.7C321.3,498.8,321.3,502.4,319.1,504.6z"/>
	<path class="st1" d="M546.7,374.5L410.9,510.3c-2.2,2.2-5.8,2.2-8.1,0l-14.7-14.7c-2.2-2.2-2.2-5.8,0-8.1l135.8-135.8
		c2.2-2.2,5.8-2.2,8.1,0l14.7,14.7C548.9,368.6,548.9,372.2,546.7,374.5z"/>
	<path class="st1" d="M367.8,553.3L232,689.1c-2.2,2.2-5.8,2.2-8.1,0l-14.7-14.7c-2.2-2.2-2.2-5.8,0-8.1l135.8-135.8
		c2.2-2.2,5.8-2.2,8.1,0l14.7,14.7C370,547.5,370,551.1,367.8,553.3z"/>
</g>
<g>
	<g>
		<g>
			<path class="st0" d="M92.4,611.9l11,11c1.4,1.4,0.7,3.7-1.1,4.2l-39.8,10.7c-1.9,0.5-3.6-1.2-3.1-3.1l10.7-39.8
				c0.5-1.9,2.8-2.5,4.2-1.1l11,11c1,1,2.6,1,3.5,0l44.5-44.5c1-1,2.6-1,3.5,0h0c1,1,1,2.6,0,3.5l-44.5,44.5
				C91.4,609.3,91.4,610.9,92.4,611.9z"/>
		</g>
	</g>
</g>
</svg>
